<svg width="85" height="32" viewBox="0 0 85 32" fill="none" xmlns="http://www.w3.org/2000/svg">
<path d="M11.3281 8.57812L5.45312 27H0.015625L8.4375 4.25H11.875L11.3281 8.57812ZM16.2031 27L10.3125 8.57812L9.70312 4.25H13.1875L21.6406 27H16.2031ZM15.9531 18.5312V22.4688H4.09375V18.5312H15.9531ZM35.3281 21C35.3281 20.6146 35.2708 20.2708 35.1562 19.9688C35.0417 19.6562 34.8333 19.3698 34.5312 19.1094C34.2292 18.849 33.8021 18.5885 33.25 18.3281C32.6979 18.0573 31.974 17.7812 31.0781 17.5C30.0573 17.1667 29.0833 16.7917 28.1562 16.375C27.2396 15.9479 26.4219 15.4531 25.7031 14.8906C24.9844 14.3281 24.4167 13.6719 24 12.9219C23.5938 12.1719 23.3906 11.2969 23.3906 10.2969C23.3906 9.32812 23.6042 8.45312 24.0312 7.67188C24.4583 6.89062 25.0573 6.22396 25.8281 5.67188C26.599 5.10938 27.5052 4.68229 28.5469 4.39062C29.5885 4.08854 30.7344 3.9375 31.9844 3.9375C33.651 3.9375 35.1146 4.23438 36.375 4.82812C37.6458 5.41146 38.6354 6.23438 39.3438 7.29688C40.0521 8.34896 40.4062 9.57292 40.4062 10.9688H35.3438C35.3438 10.3542 35.2135 9.8125 34.9531 9.34375C34.7031 8.86458 34.3177 8.48958 33.7969 8.21875C33.2865 7.94792 32.6458 7.8125 31.875 7.8125C31.125 7.8125 30.4948 7.92708 29.9844 8.15625C29.4844 8.375 29.1042 8.67708 28.8438 9.0625C28.5938 9.44792 28.4688 9.86979 28.4688 10.3281C28.4688 10.6927 28.5625 11.026 28.75 11.3281C28.9479 11.6198 29.2292 11.8958 29.5938 12.1562C29.9688 12.4062 30.4271 12.6458 30.9688 12.875C31.5104 13.1042 32.1302 13.3229 32.8281 13.5312C34.0469 13.9167 35.125 14.3438 36.0625 14.8125C37.0104 15.2812 37.8073 15.8125 38.4531 16.4062C39.099 17 39.5833 17.6719 39.9062 18.4219C40.2396 19.1719 40.4062 20.0208 40.4062 20.9688C40.4062 21.9792 40.2083 22.875 39.8125 23.6562C39.4271 24.4375 38.8646 25.1042 38.125 25.6562C37.3958 26.1979 36.5208 26.6094 35.5 26.8906C34.4792 27.1719 33.3385 27.3125 32.0781 27.3125C30.9323 27.3125 29.8021 27.1667 28.6875 26.875C27.5729 26.5729 26.5625 26.1146 25.6562 25.5C24.7604 24.8854 24.0417 24.1042 23.5 23.1562C22.9688 22.1979 22.7031 21.0625 22.7031 19.75H27.7969C27.7969 20.4375 27.8958 21.0208 28.0938 21.5C28.2917 21.9688 28.5729 22.349 28.9375 22.6406C29.3125 22.9323 29.7656 23.1406 30.2969 23.2656C30.8281 23.3906 31.4219 23.4531 32.0781 23.4531C32.8385 23.4531 33.4531 23.349 33.9219 23.1406C34.401 22.9219 34.7552 22.625 34.9844 22.25C35.2135 21.875 35.3281 21.4583 35.3281 21ZM62.1719 4.25V27H57.0938L48.5 12.2969V27H43.4062V4.25H48.5L57.1094 18.9531V4.25H62.1719ZM73.1406 27H68.1406L68.1719 23.0625H73.1406C74.276 23.0625 75.2344 22.8021 76.0156 22.2812C76.7969 21.75 77.3906 20.9688 77.7969 19.9375C78.2031 18.8958 78.4062 17.6302 78.4062 16.1406V15.0938C78.4062 13.9688 78.2917 12.9792 78.0625 12.125C77.8333 11.2604 77.4948 10.5365 77.0469 9.95312C76.599 9.36979 76.0417 8.93229 75.375 8.64062C74.7188 8.34896 73.9635 8.20312 73.1094 8.20312H68.0469V4.25H73.1094C74.651 4.25 76.0573 4.51042 77.3281 5.03125C78.6094 5.55208 79.7135 6.29688 80.6406 7.26562C81.5781 8.23438 82.3021 9.38021 82.8125 10.7031C83.3229 12.026 83.5781 13.5 83.5781 15.125V16.1406C83.5781 17.7552 83.3229 19.2292 82.8125 20.5625C82.3021 21.8854 81.5781 23.0312 80.6406 24C79.7135 24.9583 78.6146 25.6979 77.3438 26.2188C76.0729 26.7396 74.6719 27 73.1406 27ZM71.0312 4.25V27H65.9375V4.25H71.0312Z" fill="#0B49F5"/>
</svg>
