<svg width="18" height="18" viewBox="0 0 18 18" fill="none" xmlns="http://www.w3.org/2000/svg">
<path d="M9.2082 2.19995C11.4082 2.19995 11.7082 2.19995 12.6082 2.19995C13.4082 2.19995 13.8082 2.39995 14.1082 2.49995C14.5082 2.69995 14.8082 2.79995 15.1082 3.09995C15.4082 3.39995 15.6082 3.69995 15.7082 4.09995C15.8082 4.39995 15.9082 4.79995 16.0082 5.59995C16.0082 6.49995 16.0082 6.69995 16.0082 8.99995C16.0082 11.3 16.0082 11.5 16.0082 12.4C16.0082 13.2 15.8082 13.6 15.7082 13.9C15.5082 14.3 15.4082 14.6 15.1082 14.9C14.8082 15.2 14.5082 15.4 14.1082 15.5C13.8082 15.6 13.4082 15.7 12.6082 15.8C11.7082 15.8 11.5082 15.8 9.2082 15.8C6.9082 15.8 6.7082 15.8 5.8082 15.8C5.0082 15.8 4.6082 15.6 4.3082 15.5C3.9082 15.3 3.6082 15.2 3.3082 14.9C3.0082 14.6 2.8082 14.3 2.7082 13.9C2.6082 13.6 2.5082 13.2 2.4082 12.4C2.4082 11.5 2.4082 11.3 2.4082 8.99995C2.4082 6.69995 2.4082 6.49995 2.4082 5.59995C2.4082 4.79995 2.6082 4.39995 2.7082 4.09995C2.9082 3.69995 3.0082 3.39995 3.3082 3.09995C3.6082 2.79995 3.9082 2.59995 4.3082 2.49995C4.6082 2.39995 5.0082 2.29995 5.8082 2.19995C6.7082 2.19995 7.0082 2.19995 9.2082 2.19995ZM9.2082 0.699951C6.9082 0.699951 6.7082 0.699951 5.8082 0.699951C4.9082 0.699951 4.3082 0.899952 3.8082 1.09995C3.3082 1.29995 2.8082 1.59995 2.3082 2.09995C1.8082 2.59995 1.6082 2.99995 1.3082 3.59995C1.1082 4.09995 1.0082 4.69995 0.908203 5.59995C0.908203 6.49995 0.908203 6.79995 0.908203 8.99995C0.908203 11.3 0.908203 11.5 0.908203 12.4C0.908203 13.3 1.1082 13.9 1.3082 14.4C1.5082 14.9 1.8082 15.4 2.3082 15.9C2.8082 16.4 3.2082 16.6 3.8082 16.9C4.3082 17.1 4.9082 17.1999 5.8082 17.2999C6.7082 17.2999 7.0082 17.2999 9.2082 17.2999C11.4082 17.2999 11.7082 17.2999 12.6082 17.2999C13.5082 17.2999 14.1082 17.1 14.6082 16.9C15.1082 16.7 15.6082 16.4 16.1082 15.9C16.6082 15.4 16.8082 15 17.1082 14.4C17.3082 13.9 17.4082 13.3 17.5082 12.4C17.5082 11.5 17.5082 11.2 17.5082 8.99995C17.5082 6.79995 17.5082 6.49995 17.5082 5.59995C17.5082 4.69995 17.3082 4.09995 17.1082 3.59995C16.9082 3.09995 16.6082 2.59995 16.1082 2.09995C15.6082 1.59995 15.2082 1.39995 14.6082 1.09995C14.1082 0.899952 13.5082 0.799951 12.6082 0.699951C11.7082 0.699951 11.5082 0.699951 9.2082 0.699951Z" fill="#C3C3C3"/>
<path d="M9.2082 4.69995C6.8082 4.69995 4.9082 6.59995 4.9082 8.99995C4.9082 11.4 6.8082 13.3 9.2082 13.3C11.6082 13.3 13.5082 11.4 13.5082 8.99995C13.5082 6.59995 11.6082 4.69995 9.2082 4.69995ZM9.2082 11.8C7.7082 11.8 6.4082 10.6 6.4082 8.99995C6.4082 7.49995 7.6082 6.19995 9.2082 6.19995C10.7082 6.19995 12.0082 7.39995 12.0082 8.99995C12.0082 10.5 10.7082 11.8 9.2082 11.8Z" fill="#C3C3C3"/>
<path d="M13.6082 5.59995C14.1605 5.59995 14.6082 5.15224 14.6082 4.59995C14.6082 4.04767 14.1605 3.59995 13.6082 3.59995C13.0559 3.59995 12.6082 4.04767 12.6082 4.59995C12.6082 5.15224 13.0559 5.59995 13.6082 5.59995Z" fill="#C3C3C3"/>
</svg>
