<svg width="17" height="16" viewBox="0 0 17 16" fill="none" xmlns="http://www.w3.org/2000/svg">
<path d="M3.80826 16H0.408249V5.3H3.80826V16ZM2.10825 3.8C1.00825 3.8 0.208252 3 0.208252 1.9C0.208252 0.8 1.10825 0 2.10825 0C3.20825 0 4.00826 0.8 4.00826 1.9C4.00826 3 3.20825 3.8 2.10825 3.8ZM16.2083 16H12.8083V10.2C12.8083 8.5 12.1082 8 11.1082 8C10.1082 8 9.10825 8.8 9.10825 10.3V16H5.70825V5.3H8.90825V6.8C9.20825 6.1 10.4082 5 12.1082 5C14.0082 5 16.0083 6.1 16.0083 9.4V16H16.2083Z" fill="#C3C3C3"/>
</svg>
