<svg width="17" height="12" viewBox="0 0 17 12" fill="none" xmlns="http://www.w3.org/2000/svg">
<path d="M15.8083 2.0999C15.6083 1.3999 15.1083 0.899903 14.4083 0.699903C13.2083 0.399903 8.10825 0.399902 8.10825 0.399902C8.10825 0.399902 3.10826 0.399903 1.80826 0.699903C1.10826 0.899903 0.608249 1.3999 0.408249 2.0999C0.208249 3.3999 0.208252 5.9999 0.208252 5.9999C0.208252 5.9999 0.208255 8.5999 0.508255 9.8999C0.708255 10.5999 1.20825 11.0999 1.90825 11.2999C3.10825 11.5999 8.20825 11.5999 8.20825 11.5999C8.20825 11.5999 13.2082 11.5999 14.5082 11.2999C15.2082 11.0999 15.7083 10.5999 15.9083 9.8999C16.2083 8.5999 16.2083 5.9999 16.2083 5.9999C16.2083 5.9999 16.2083 3.3999 15.8083 2.0999ZM6.60825 8.3999V3.5999L10.8083 5.9999L6.60825 8.3999Z" fill="#C3C3C3"/>
</svg>
